<svg height="40px" width="40px" version="1.1" id="Layer_1" xmlns="http://www.w3.org/2000/svg"
     xmlns:xlink="http://www.w3.org/1999/xlink" viewBox="0 0 512.853 512.853" xml:space="preserve" fill="#000000"><g id="SVGRepo_bgCarrier" stroke-width="0"></g>
    <g id="SVGRepo_tracerCarrier" stroke-linecap="round" stroke-linejoin="round"></g>
    <g id="SVGRepo_iconCarrier"> <g transform="translate(1 1)"> <path style="fill:#FFE100;"
                                                                      d="M471.747,189.72l-74.24-81.92c-3.413-3.413-9.387-5.973-14.507-5.973h-52.907 c-8.533,0-15.36,6.827-15.36,15.36v189.44h-281.6v73.387c0,6.827,5.12,11.947,11.947,11.947h13.653c0-28.16,23.04-51.2,51.2-51.2 s51.2,23.04,51.2,51.2h153.6H357.4c0-28.16,5.973-51.2,34.133-51.2s42.667,23.04,42.667,51.2h30.72 c6.827,0,11.947-5.12,11.947-11.947v-176.64C476.867,198.253,475.16,193.987,471.747,189.72"></path>
        <path style="fill:#FFA800;"
              d="M497.347,189.72l-74.24-81.92c-3.413-3.413-9.387-5.973-14.507-5.973H383 c5.973,0,11.093,2.56,14.507,6.827l74.24,81.92c3.413,3.413,5.12,8.533,5.12,13.653v176.64c0,6.827-5.12,11.947-11.947,11.947h25.6 c6.827,0,11.947-5.12,11.947-11.947V203.373C502.467,198.253,500.76,193.987,497.347,189.72"></path>
        <path style="fill:#3DB9F9;"
              d="M363.373,238.36h139.093v-34.987c0-5.12-1.707-9.387-5.12-13.653l-49.493-53.76h-84.48 c-3.413,0-5.973,2.56-5.973,5.973v90.453C357.4,235.8,359.96,238.36,363.373,238.36"></path>
        <path style="fill:#63D3FD;"
              d="M363.373,238.36h113.493v-34.987c0-5.12-1.707-9.387-5.12-13.653l-49.493-53.76h-58.88 c-3.413,0-5.973,2.56-5.973,5.973v90.453C357.4,235.8,359.96,238.36,363.373,238.36"></path>
        <path style="fill:#FECC00;"
              d="M135.533,391.96c0,28.16-17.067,51.2-38.4,51.2s-38.4-23.04-38.4-51.2 c0-28.16,17.067-51.2,38.4-51.2S135.533,363.8,135.533,391.96"></path>
        <path style="fill:#FFA800;"
              d="M109.08,340.76c-2.56,0-5.12,0-7.68,0.853c18.773,3.413,33.28,24.747,33.28,50.347 s-14.507,46.933-33.28,50.347c2.56,0,5.12,0.853,7.68,0.853c28.16,0,51.2-23.04,51.2-51.2 C160.28,363.8,137.24,340.76,109.08,340.76"></path>
        <path style="fill:#FECC00;"
              d="M435.053,391.96c0,28.16-17.067,51.2-38.4,51.2c-21.333,0-38.4-23.04-38.4-51.2 c0-28.16,17.067-51.2,38.4-51.2C417.987,340.76,435.053,363.8,435.053,391.96"></path>
        <path style="fill:#FFA800;"
              d="M408.6,340.76c-2.56,0-5.12,0-7.68,0.853c18.773,3.413,33.28,24.747,33.28,50.347 s-14.507,46.933-33.28,50.347c2.56,0,5.12,0.853,7.68,0.853c28.16,0,51.2-23.04,51.2-51.2C459.8,363.8,436.76,340.76,408.6,340.76"></path>
        <path style="fill:#FECC00;"
              d="M255,306.627H58.733l-25.6-110.933l34.133-85.333h142.507c6.827,0,12.8-4.267,15.36-10.24 l12.8-32.427h51.2L255,306.627z"></path>
        <path style="fill:#FFFFFF;"
              d="M67.267,110.36h-25.6L7.533,195.693l25.6,110.933h25.6l-25.6-110.933L67.267,110.36z"></path>
        <path d="M255,315.16H33.133c-4.267,0-7.68-2.56-8.533-6.827L-1,197.4c0-1.707,0-3.413,0-5.12l34.133-85.333 c1.707-3.413,5.12-5.12,8.533-5.12h168.107c3.413,0,5.973-1.707,7.68-5.12l12.8-32.427c0.853-3.413,4.267-5.12,7.68-5.12h51.2 c2.56,0,5.12,0.853,6.827,2.56c0.853,2.56,1.707,5.12,1.707,6.827L263.533,307.48C262.68,311.747,259.267,315.16,255,315.16z M39.96,298.093h207.36l31.573-221.867h-35.84l-11.093,27.307c-2.56,9.387-11.947,15.36-22.187,15.36H47.64l-31.573,77.653 L39.96,298.093z"></path>
        <path d="M511,246.893H363.373c-7.68,0-14.507-6.827-14.507-14.507v-90.453c0-7.68,6.827-14.507,14.507-14.507h88.747l51.2,57.173 c5.12,5.12,7.68,11.947,7.68,19.627V246.893z M365.933,229.827h128v-26.453c0-2.56-0.853-5.973-3.413-7.68l-46.933-51.2h-77.653 V229.827z"></path>
        <path d="M408.6,451.693c-33.28,0-59.733-26.453-59.733-59.733s26.453-59.733,59.733-59.733s59.733,26.453,59.733,59.733 S441.88,451.693,408.6,451.693z M408.6,349.293c-23.893,0-42.667,18.773-42.667,42.667c0,23.893,18.773,42.667,42.667,42.667 c23.893,0,42.667-18.773,42.667-42.667C451.267,368.067,432.493,349.293,408.6,349.293z"></path>
        <path d="M109.933,451.693c-33.28,0-59.733-26.453-59.733-59.733s26.453-59.733,59.733-59.733s59.733,26.453,59.733,59.733 S143.213,451.693,109.933,451.693z M109.933,349.293c-23.893,0-42.667,18.773-42.667,42.667c0,23.893,18.773,42.667,42.667,42.667 S152.6,415.853,152.6,391.96C152.6,368.067,133.827,349.293,109.933,349.293z"></path>
        <path d="M502.467,306.627h-51.2c-5.12,0-8.533-3.413-8.533-8.533s3.413-8.533,8.533-8.533h51.2c5.12,0,8.533,3.413,8.533,8.533 S507.587,306.627,502.467,306.627z"></path>
        <path d="M152.6,229.827h-128c-5.12,0-8.533-3.413-8.533-8.533c0-5.12,3.413-8.533,8.533-8.533h128c5.12,0,8.533,3.413,8.533,8.533 C161.133,226.413,157.72,229.827,152.6,229.827z"></path>
        <path d="M109.933,187.16H16.067c-5.12,0-8.533-3.413-8.533-8.533c0-5.12,3.413-8.533,8.533-8.533h93.867 c5.12,0,8.533,3.413,8.533,8.533C118.467,183.747,115.053,187.16,109.933,187.16z"></path>
        <path d="M490.52,400.493h-39.253v-8.533c0-23.893-18.773-42.667-42.667-42.667c-23.893,0-42.667,18.773-42.667,42.667v8.533H152.6 v-8.533c0-23.893-18.773-42.667-42.667-42.667s-42.667,18.773-42.667,42.667v8.533H45.08c-11.093,0-20.48-9.387-20.48-20.48v-81.92 h281.6V117.187c0-13.653,10.24-23.893,23.893-23.893H408.6c7.68,0,15.36,3.413,21.333,9.387l74.24,81.92 c5.12,5.12,7.68,11.947,7.68,19.627v176.64C511,391.107,501.613,400.493,490.52,400.493z M467.48,383.427h23.04 c1.707,0,3.413-1.707,3.413-3.413v-176.64c0-2.56-0.853-5.973-3.413-7.68l0,0l-73.387-81.92c-2.56-1.707-5.973-3.413-8.533-3.413 h-78.507c-4.267,0-6.827,2.56-6.827,6.827V315.16h-281.6v64.853c0,1.707,1.707,3.413,3.413,3.413h5.973 c4.267-29.013,29.013-51.2,58.88-51.2s54.613,22.187,58.88,51.2h180.053c4.267-29.013,29.013-51.2,58.88-51.2 S463.213,354.413,467.48,383.427z"></path>
        <path d="M127,391.96c0,9.387-7.68,17.067-17.067,17.067s-17.067-7.68-17.067-17.067s7.68-17.067,17.067-17.067 S127,382.573,127,391.96"></path>
        <path d="M425.667,391.96c0,9.387-7.68,17.067-17.067,17.067c-9.387,0-17.067-7.68-17.067-17.067s7.68-17.067,17.067-17.067 C417.987,374.893,425.667,382.573,425.667,391.96"></path>
        <path d="M348.867,76.227H280.6c-5.12,0-8.533-3.413-8.533-8.533s3.413-8.533,8.533-8.533h68.267c5.12,0,8.533,3.413,8.533,8.533 S353.987,76.227,348.867,76.227z"></path> </g> </g></svg>