<svg width="144.101" height="85.9" viewBox="0 0 144.101 85.9" xmlns="http://www.w3.org/2000/svg">
    <defs>
        <linearGradient id="Gradient0" x1="0.3" x2="0.5" y1="0.4" y2="1">
            <stop offset="0%" stop-color="#ffea00" />
            <stop offset="50%" stop-color="#ffd000" />
        </linearGradient>
        <linearGradient id="Gradient1" x1="0" x2="1" y1="0" y2="1">
            <stop offset="0%" stop-color="#186dff" />
            <stop offset="30%" stop-color="#186dff" />
            <stop offset="60%" stop-color="#003fab" />
        </linearGradient>
        <linearGradient id="Gradient2" x1="0.5" x2="0" y1="0" y2="1">
            <stop offset="5%" stop-color="#00c914" />
            <stop offset="60%" stop-color="#00690a" />
        </linearGradient>
    </defs>


    <g id="svgGroup0" stroke-linecap="round" fill-rule="nonzero" font-size="9pt" stroke="none" stroke-width="0.25mm" fill="url(#Gradient0)" style="stroke:none;stroke-width:0.25mm;fill:url(#Gradient0)">
        <path d="M 40.201 0 L 40.201 68 Q 36.801 69.1 31.901 69.8 Q 27.001 70.5 22.301 70.5 Q 11.301 70.5 5.651 64 Q 0.001 57.5 0.001 46.2 Q 0.001 34.7 4.751 28.05 Q 9.501 21.4 18.801 21.4 Q 21.301 21.4 23.701 21.95 Q 26.101 22.5 27.901 23.5 L 27.901 2.1 L 40.201 0 Z M 27.901 59.5 L 27.901 33.9 Q 26.501 33.1 24.701 32.55 Q 22.901 32 20.901 32 Q 16.501 32 14.501 35.5 Q 12.501 39 12.501 45.6 Q 12.501 51.9 14.851 55.9 Q 17.201 59.9 22.401 59.9 Q 23.901 59.9 25.201 59.8 Q 26.501 59.7 27.901 59.5 Z" id="0" vector-effect="non-scaling-stroke"/>
    </g>
    <g id="svgGroup1" stroke-linecap="round" fill-rule="nonzero" font-size="9pt" stroke="none" stroke-width="0.25mm" fill="url(#Gradient1)" style="stroke:none;stroke-width:0.25mm;fill:url(#Gradient1)">
        <path d="M 92.301 57.5 L 93.901 67.4 Q 93.601 67.6 92.551 68.1 Q 91.501 68.6 89.801 69.15 Q 88.101 69.7 85.651 70.1 Q 83.201 70.5 80.101 70.5 Q 71.601 70.5 67.701 65.45 Q 63.801 60.4 63.801 50.7 L 63.801 10.8 L 50.801 10.8 L 50.801 0.6 L 76.101 0.6 L 76.101 51.6 Q 76.101 56.4 78.001 58.1 Q 79.901 59.8 82.801 59.8 Q 86.501 59.8 89.001 58.8 Q 91.501 57.8 92.301 57.5 Z" id="1" vector-effect="non-scaling-stroke"/>
    </g>
    <g id="svgGroup2" stroke-linecap="round" fill-rule="nonzero" font-size="9pt" stroke="none" stroke-width="0.25mm" fill="url(#Gradient2)" style="stroke:none;stroke-width:0.25mm;fill:url(#Gradient2)">
        <path d="M 115.801 68.2 L 115.801 85.9 L 103.501 85.9 L 103.501 23.9 Q 106.901 22.8 111.851 22.1 Q 116.801 21.4 121.601 21.4 Q 132.501 21.4 138.301 28 Q 144.101 34.6 144.101 45.9 Q 144.101 51.3 142.901 55.85 Q 141.701 60.4 139.401 63.65 Q 137.101 66.9 133.601 68.7 Q 130.101 70.5 125.501 70.5 Q 120.801 70.5 115.801 68.2 Z M 115.801 32.3 L 115.801 58.1 Q 117.001 58.9 119.001 59.4 Q 121.001 59.9 123.001 59.9 Q 127.401 59.9 129.501 56.35 Q 131.601 52.8 131.601 46.3 Q 131.601 40 129.101 35.95 Q 126.601 31.9 121.501 31.9 Q 120.101 31.9 118.501 32.05 Q 116.901 32.2 115.801 32.3 Z" id="2" vector-effect="non-scaling-stroke"/>
    </g>

</svg>